<?xml version="1.0" encoding="utf-8"?>
<svg version="1.1" xmlns:xlink="http://www.w3.org/1999/xlink" width="18px" height="20px" xmlns="http://www.w3.org/2000/svg">
  <g transform="matrix(1 0 0 1 -415 -224 )">
    <path d="M 17.9552556818182 15.2799479166667  C 17.9850852272727 15.7183159722222  18 16.1675347222222  18 16.6276041666667  C 18 17.6692708333333  17.6889204545455 18.4917534722222  17.0667613636364 19.0950520833333  C 16.4446022727273 19.6983506944444  15.6178977272727 20  14.5866477272727 20  L 3.41335227272727 20  C 2.38210227272727 20  1.55539772727273 19.6983506944444  0.933238636363636 19.0950520833333  C 0.311079545454545 18.4917534722222  0 17.6692708333333  0 16.6276041666667  C 0 16.1675347222222  0.0149147727272727 15.7183159722222  0.0447443181818182 15.2799479166667  C 0.0745738636363636 14.8415798611111  0.134232954545455 14.3684895833333  0.223721590909091 13.8606770833333  C 0.313210227272727 13.3528645833333  0.426136363636364 12.8819444444444  0.5625 12.4479166666667  C 0.698863636363636 12.0138888888889  0.882102272727273 11.5907118055556  1.11221590909091 11.1783854166667  C 1.34232954545455 10.7660590277778  1.60653409090909 10.4144965277778  1.90482954545455 10.1236979166667  C 2.203125 9.83289930555556  2.56747159090909 9.60069444444444  2.99786931818182 9.42708333333333  C 3.42826704545455 9.25347222222222  3.90340909090909 9.16666666666667  4.42329545454545 9.16666666666667  C 4.5 9.16666666666667  4.67897727272727 9.25998263888889  4.96022727272727 9.44661458333333  C 5.24147727272727 9.63324652777778  5.55894886363636 9.84157986111111  5.91264204545455 10.0716145833333  C 6.26633522727273 10.3016493055556  6.7265625 10.5099826388889  7.29332386363636 10.6966145833333  C 7.86008522727273 10.8832465277778  8.42897727272727 10.9765625  9 10.9765625  C 9.57102272727273 10.9765625  10.1399147727273 10.8832465277778  10.7066761363636 10.6966145833333  C 11.2734375 10.5099826388889  11.7336647727273 10.3016493055556  12.0873579545455 10.0716145833333  C 12.4410511363636 9.84157986111111  12.7585227272727 9.63324652777778  13.0397727272727 9.44661458333333  C 13.3210227272727 9.25998263888889  13.5 9.16666666666667  13.5767045454545 9.16666666666667  C 14.0965909090909 9.16666666666667  14.5717329545455 9.25347222222222  15.0021306818182 9.42708333333333  C 15.4325284090909 9.60069444444444  15.796875 9.83289930555556  16.0951704545455 10.1236979166667  C 16.3934659090909 10.4144965277778  16.6576704545455 10.7660590277778  16.8877840909091 11.1783854166667  C 17.1178977272727 11.5907118055556  17.3011363636364 12.0138888888889  17.4375 12.4479166666667  C 17.5738636363636 12.8819444444444  17.6867897727273 13.3528645833333  17.7762784090909 13.8606770833333  C 17.8657670454545 14.3684895833333  17.9254261363636 14.8415798611111  17.9552556818182 15.2799479166667  Z M 12.4708806818182 1.46484375  C 13.4296875 2.44140625  13.9090909090909 3.61979166666667  13.9090909090909 5  C 13.9090909090909 6.38020833333333  13.4296875 7.55859375  12.4708806818182 8.53515625  C 11.5120738636364 9.51171875  10.3551136363636 10  9 10  C 7.64488636363636 10  6.48792613636364 9.51171875  5.52911931818182 8.53515625  C 4.5703125 7.55859375  4.09090909090909 6.38020833333333  4.09090909090909 5  C 4.09090909090909 3.61979166666667  4.5703125 2.44140625  5.52911931818182 1.46484375  C 6.48792613636364 0.48828125  7.64488636363636 0  9 0  C 10.3551136363636 0  11.5120738636364 0.48828125  12.4708806818182 1.46484375  Z " fill-rule="nonzero" fill="#333333" stroke="none" transform="matrix(1 0 0 1 415 224 )" />
  </g>
</svg>