<?xml version="1.0" encoding="utf-8"?>
<svg version="1.1" xmlns:xlink="http://www.w3.org/1999/xlink" width="319px" height="236px" xmlns="http://www.w3.org/2000/svg">
  <g transform="matrix(1 0 0 1 -45 -229 )">
    <path d="M 45 229  L 364 229  L 364 465  L 45 465  L 45 229  " fill-rule="nonzero" fill="#cccccc" stroke="none" />
    <path d="M 62 246  L 347 246  L 347 448  L 62 448  L 62 246  " fill-rule="nonzero" fill="#ffffff" stroke="none" />
    <path d="M 228.58 299.8  C 218.668 299.8  210.88 292.012  210.88 282.1  C 210.88 272.188  218.668 264.4  228.58 264.4  C 238.492 264.4  246.28 272.188  246.28 282.1  C 246.28 292.012  238.492 299.8  228.58 299.8  " fill-rule="nonzero" fill="#cccccc" stroke="none" />
    <path d="M 68 442  L 68 337.5  L 136.25 290  L 231.8 357.66144200627  L 286.4 318.5  L 341 357.66144200627  L 341 442  L 68 442  " fill-rule="nonzero" fill="#169bd5" stroke="none" />
  </g>
</svg>