<?xml version="1.0" encoding="utf-8"?>
<svg version="1.1" xmlns:xlink="http://www.w3.org/1999/xlink" width="165px" height="118px" xmlns="http://www.w3.org/2000/svg">
  <defs>
    <mask fill="white" id="clip72">
      <path d="M 183 328  L 183 215  C 183 212.225  185.225 210  188 210  L 343 210  C 345.775 210  348 212.225  348 215  L 348 328  " fill-rule="evenodd" />
    </mask>
  </defs>
  <g transform="matrix(1 0 0 1 -183 -210 )">
    <path d="M 183 210  L 348 210  L 348 328  L 183 328  L 183 210  " fill-rule="nonzero" fill="#cccccc" stroke="none" mask="url(#clip72)" />
    <path d="M 191 218  L 340 218  L 340 320  L 191 320  L 191 218  " fill-rule="nonzero" fill="#ffffff" stroke="none" mask="url(#clip72)" />
    <path d="M 277.65 245.4  C 272.694 245.4  268.8 241.506  268.8 236.55  C 268.8 231.594  272.694 227.7  277.65 227.7  C 282.606 227.7  286.5 231.594  286.5 236.55  C 286.5 241.506  282.606 245.4  277.65 245.4  " fill-rule="nonzero" fill="#cccccc" stroke="none" mask="url(#clip72)" />
    <path d="M 194 317  L 194 264.2  L 229.75 240.2  L 279.8 275.807272727273  L 308.4 254.6  L 337 275.807272727273  L 337 317  L 194 317  " fill-rule="nonzero" fill="#169bd5" stroke="none" mask="url(#clip72)" />
  </g>
</svg>