<?xml version="1.0" encoding="utf-8"?>
<svg version="1.1" xmlns:xlink="http://www.w3.org/1999/xlink" width="30px" height="30px" xmlns="http://www.w3.org/2000/svg">
  <g transform="matrix(1 0 0 1 -54 -21 )">
    <path d="M 69 21  C 77.4 21  84 27.6  84 36  C 84 44.4  77.4 51  69 51  C 60.6 51  54 44.4  54 36  C 54 27.6  60.6 21  69 21  Z " fill-rule="nonzero" fill="#ffffff" stroke="none" />
    <path d="M 69 21.5  C 77.12 21.5  83.5 27.88  83.5 36  C 83.5 44.12  77.12 50.5  69 50.5  C 60.88 50.5  54.5 44.12  54.5 36  C 54.5 27.88  60.88 21.5  69 21.5  Z " stroke-width="1" stroke="#797979" fill="none" />
  </g>
</svg>