<?xml version="1.0" encoding="utf-8"?>
<svg version="1.1" xmlns:xlink="http://www.w3.org/1999/xlink" width="270px" height="180px" xmlns="http://www.w3.org/2000/svg">
  <defs>
    <mask fill="white" id="clip76">
      <path d="M 73 286  C 70.225 286  68 283.775  68 281  L 68 111  C 68 108.225  70.225 106  73 106  L 333 106  C 335.775 106  338 108.225  338 111  L 338 281  C 338 283.775  335.775 286  333 286  " fill-rule="evenodd" />
    </mask>
  </defs>
  <g transform="matrix(1 0 0 1 -68 -106 )">
    <path d="M 68 106  L 338 106  L 338 286  L 68 286  L 68 106  " fill-rule="nonzero" fill="#cccccc" stroke="none" mask="url(#clip76)" />
    <path d="M 81 119  L 325 119  L 325 273  L 81 273  L 81 119  " fill-rule="nonzero" fill="#ffffff" stroke="none" mask="url(#clip76)" />
    <path d="M 221.9 160  C 214.34 160  208.4 154.06  208.4 146.5  C 208.4 138.94  214.34 133  221.9 133  C 229.46 133  235.4 138.94  235.4 146.5  C 235.4 154.06  229.46 160  221.9 160  " fill-rule="nonzero" fill="#cccccc" stroke="none" mask="url(#clip76)" />
    <path d="M 86 269  L 86 189.25  L 144.75 153  L 227 211  L 274 174.75  L 321 211  L 321 269  L 86 269  " fill-rule="nonzero" fill="#169bd5" stroke="none" mask="url(#clip76)" />
  </g>
</svg>