<?xml version="1.0" encoding="utf-8"?>
<svg version="1.1" xmlns:xlink="http://www.w3.org/1999/xlink" width="55px" height="20px" xmlns="http://www.w3.org/2000/svg">
  <defs>
    <mask fill="white" id="clip1086">
      <path d="M 0 19  L 0 0  L 25 0  L 54 0  L 54 19  L 0 19  Z " fill-rule="evenodd" />
    </mask>
  </defs>
  <g transform="matrix(1 0 0 1 -113 -28 )">
    <path d="M 0 19  L 0 0  L 25 0  L 54 0  L 54 19  L 0 19  Z M 1.34049655540051 18.5283438045813  L 52.6595034445995 0.471656195418689  C 52.6595034445995 0.471656195418689  42.6004671740365 4.01094673506124  37.570949038755 5.78059200488251  C 35.6869087580104 6.44349506662597  31.9188281965212 7.76930119011291  31.9188281965212 7.76930119011291  L 1.34049655540051 18.5283438045813  Z " fill-rule="nonzero" fill="#f2f2f2" stroke="none" transform="matrix(1 0 0 1 113 28 )" />
    <path d="M 0 19  L 0 0  L 25 0  L 54 0  L 54 19  L 0 19  Z " stroke-width="2" stroke="#797979" fill="none" transform="matrix(1 0 0 1 113 28 )" mask="url(#clip1086)" />
    <path d="M 52.6595034445995 0.471656195418689  C 52.6595034445995 0.471656195418689  42.6004671740365 4.01094673506124  37.570949038755 5.78059200488251  C 35.6869087580104 6.44349506662597  31.9188281965212 7.76930119011291  31.9188281965212 7.76930119011291  L 1.34049655540051 18.5283438045813  M 1.34049655540051 0.471656195418689  L 52.6595034445995 18.5283438045813  " stroke-width="1" stroke="#797979" fill="none" transform="matrix(1 0 0 1 113 28 )" />
  </g>
</svg>