<?xml version="1.0" encoding="utf-8"?>
<svg version="1.1" xmlns:xlink="http://www.w3.org/1999/xlink" width="95px" height="95px" xmlns="http://www.w3.org/2000/svg">
  <g transform="matrix(1 0 0 1 -30 -103 )">
    <path d="M 30 103  L 125 103  L 125 198  L 30 198  L 30 103  " fill-rule="nonzero" fill="#cccccc" stroke="none" />
    <path d="M 37 110  L 118 110  L 118 191  L 37 191  L 37 110  " fill-rule="nonzero" fill="#ffffff" stroke="none" />
    <path d="M 86.525 131.5  C 82.535 131.5  79.4 128.365  79.4 124.375  C 79.4 120.385  82.535 117.25  86.525 117.25  C 90.515 117.25  93.65 120.385  93.65 124.375  C 93.65 128.365  90.515 131.5  86.525 131.5  " fill-rule="nonzero" fill="#cccccc" stroke="none" />
    <path d="M 40 189  L 40 147.2  L 59 128.2  L 85.6 143.4  L 100.8 139.6  L 116 143.4  L 116 189  L 40 189  " fill-rule="nonzero" fill="#169bd5" stroke="none" />
  </g>
</svg>