<?xml version="1.0" encoding="utf-8"?>
<svg version="1.1" xmlns:xlink="http://www.w3.org/1999/xlink" width="45px" height="45px" xmlns="http://www.w3.org/2000/svg">
  <g transform="matrix(1 0 0 1 -24 -141 )">
    <path d="M 46.5 141  C 59.1 141  69 150.9  69 163.5  C 69 176.1  59.1 186  46.5 186  C 33.9 186  24 176.1  24 163.5  C 24 150.9  33.9 141  46.5 141  Z " fill-rule="nonzero" fill="#ffffff" stroke="none" />
    <path d="M 46.5 141.5  C 58.82 141.5  68.5 151.18  68.5 163.5  C 68.5 175.82  58.82 185.5  46.5 185.5  C 34.18 185.5  24.5 175.82  24.5 163.5  C 24.5 151.18  34.18 141.5  46.5 141.5  Z " stroke-width="1" stroke="#797979" fill="none" />
  </g>
</svg>