<?xml version="1.0" encoding="utf-8"?>
<svg version="1.1" xmlns:xlink="http://www.w3.org/1999/xlink" width="50px" height="50px" xmlns="http://www.w3.org/2000/svg">
  <g transform="matrix(1 0 0 1 -12 -50 )">
    <path d="M 12 50  L 62 50  L 62 100  L 12 100  L 12 50  " fill-rule="nonzero" fill="#cccccc" stroke="none" />
    <path d="M 16 54  L 58 54  L 58 96  L 16 96  L 16 54  " fill-rule="nonzero" fill="#ffffff" stroke="none" />
    <path d="M 41.75 65  C 39.65 65  38 63.35  38 61.25  C 38 59.15  39.65 57.5  41.75 57.5  C 43.85 57.5  45.5 59.15  45.5 61.25  C 45.5 63.35  43.85 65  41.75 65  " fill-rule="nonzero" fill="#cccccc" stroke="none" />
    <path d="M 18 95  L 18 73.55  L 27.75 63.8  L 41.4 71.6  L 49.2 69.65  L 57 71.6  L 57 95  L 18 95  " fill-rule="nonzero" fill="#169bd5" stroke="none" />
  </g>
</svg>