<?xml version="1.0" encoding="utf-8"?>
<svg version="1.1" xmlns:xlink="http://www.w3.org/1999/xlink" width="18px" height="15px" xmlns="http://www.w3.org/2000/svg">
  <g transform="matrix(1 0 0 1 -273 -628 )">
    <path d="M 6.05189732142857 5.3662109375  C 6.30301339285714 5.6103515625  6.42857142857143 5.90494791666667  6.42857142857143 6.25  C 6.42857142857143 6.59505208333333  6.30301339285714 6.8896484375  6.05189732142857 7.1337890625  C 5.80078125 7.3779296875  5.49776785714286 7.5  5.14285714285714 7.5  C 4.78794642857143 7.5  4.48493303571429 7.3779296875  4.23381696428571 7.1337890625  C 3.98270089285714 6.8896484375  3.85714285714286 6.59505208333333  3.85714285714286 6.25  C 3.85714285714286 5.90494791666667  3.98270089285714 5.6103515625  4.23381696428571 5.3662109375  C 4.48493303571429 5.1220703125  4.78794642857143 5  5.14285714285714 5  C 5.49776785714286 5  5.80078125 5.1220703125  6.05189732142857 5.3662109375  Z M 9.90904017857143 5.3662109375  C 10.16015625 5.6103515625  10.2857142857143 5.90494791666667  10.2857142857143 6.25  C 10.2857142857143 6.59505208333333  10.16015625 6.8896484375  9.90904017857143 7.1337890625  C 9.65792410714286 7.3779296875  9.35491071428572 7.5  9 7.5  C 8.64508928571429 7.5  8.34207589285714 7.3779296875  8.09095982142857 7.1337890625  C 7.83984375 6.8896484375  7.71428571428571 6.59505208333333  7.71428571428571 6.25  C 7.71428571428571 5.90494791666667  7.83984375 5.6103515625  8.09095982142857 5.3662109375  C 8.34207589285714 5.1220703125  8.64508928571429 5  9 5  C 9.35491071428572 5  9.65792410714286 5.1220703125  9.90904017857143 5.3662109375  Z M 13.7661830357143 5.3662109375  C 14.0172991071429 5.6103515625  14.1428571428571 5.90494791666667  14.1428571428571 6.25  C 14.1428571428571 6.59505208333333  14.0172991071429 6.8896484375  13.7661830357143 7.1337890625  C 13.5150669642857 7.3779296875  13.2120535714286 7.5  12.8571428571429 7.5  C 12.5022321428571 7.5  12.19921875 7.3779296875  11.9481026785714 7.1337890625  C 11.6969866071429 6.8896484375  11.5714285714286 6.59505208333333  11.5714285714286 6.25  C 11.5714285714286 5.90494791666667  11.6969866071429 5.6103515625  11.9481026785714 5.3662109375  C 12.19921875 5.1220703125  12.5022321428571 5  12.8571428571429 5  C 13.2120535714286 5  13.5150669642857 5.1220703125  13.7661830357143 5.3662109375  Z M 12.83203125 1.9287109375  C 11.6434151785714 1.47623697916667  10.3660714285714 1.25  9 1.25  C 7.63392857142857 1.25  6.35658482142857 1.47623697916667  5.16796875 1.9287109375  C 3.97935267857143 2.38118489583333  3.03515625 2.99153645833333  2.33537946428571 3.759765625  C 1.63560267857143 4.52799479166666  1.28571428571429 5.35807291666667  1.28571428571429 6.25  C 1.28571428571429 6.97916666666667  1.52511160714286 7.67415364583333  2.00390625 8.3349609375  C 2.48270089285714 8.99576822916667  3.15736607142857 9.56705729166667  4.02790178571429 10.048828125  L 4.90178571428571 10.537109375  L 4.63058035714286 11.474609375  C 4.46986607142857 12.0670572916667  4.23549107142857 12.626953125  3.92745535714286 13.154296875  C 4.9453125 12.744140625  5.86607142857143 12.1875  6.68973214285714 11.484375  L 7.12165178571429 11.11328125  L 7.69419642857143 11.171875  C 8.15625 11.2239583333333  8.59151785714286 11.25  9 11.25  C 10.3660714285714 11.25  11.6434151785714 11.0237630208333  12.83203125 10.5712890625  C 14.0206473214286 10.1188151041667  14.96484375 9.50846354166667  15.6646205357143 8.740234375  C 16.3643973214286 7.97200520833333  16.7142857142857 7.14192708333333  16.7142857142857 6.25  C 16.7142857142857 5.35807291666667  16.3643973214286 4.52799479166666  15.6646205357143 3.759765625  C 14.96484375 2.99153645833333  14.0206473214286 2.38118489583333  12.83203125 1.9287109375  Z M 17.2868303571429 3.8232421875  C 17.7622767857143 4.5947265625  18 5.40364583333333  18 6.25  C 18 7.3828125  17.5982142857143 8.42936197916666  16.7946428571429 9.3896484375  C 15.9910714285714 10.3499348958333  14.8995535714286 11.1083984375  13.5200892857143 11.6650390625  C 12.140625 12.2216796875  10.6339285714286 12.5  9 12.5  C 8.53125 12.5  8.04575892857143 12.4739583333333  7.54352678571429 12.421875  C 6.21763392857143 13.5611979166667  4.67745535714286 14.3489583333333  2.92299107142857 14.78515625  C 2.59486607142857 14.8763020833333  2.21316964285714 14.9479166666667  1.77790178571429 15  L 1.72767857142857 15  C 1.62723214285714 15  1.53683035714286 14.9658203125  1.45647321428571 14.8974609375  C 1.37611607142857 14.8291015625  1.32254464285714 14.7395833333333  1.29575892857143 14.62890625  L 1.29575892857143 14.619140625  C 1.27566964285714 14.5930989583333  1.27399553571429 14.5540364583333  1.29073660714286 14.501953125  C 1.30747767857143 14.4498697916667  1.31417410714286 14.4173177083333  1.31082589285714 14.404296875  C 1.30747767857143 14.3912760416667  1.32254464285714 14.3603515625  1.35602678571429 14.3115234375  L 1.41629464285714 14.2236328125  C 1.41629464285714 14.2236328125  1.43973214285714 14.1959635416667  1.48660714285714 14.140625  C 1.53348214285714 14.0852864583333  1.56026785714286 14.0559895833333  1.56696428571429 14.052734375  C 1.61383928571429 14.0006510416667  1.71763392857143 13.8883463541667  1.87834821428571 13.7158203125  C 2.0390625 13.5432942708333  2.15457589285714 13.4195963541667  2.22488839285714 13.3447265625  C 2.29520089285714 13.2698567708333  2.39899553571429 13.1412760416667  2.53627232142857 12.958984375  C 2.67354910714286 12.7766927083333  2.78236607142857 12.6106770833333  2.86272321428571 12.4609375  C 2.94308035714286 12.3111979166667  3.03348214285714 12.119140625  3.13392857142857 11.884765625  C 3.234375 11.650390625  3.32142857142857 11.4029947916667  3.39508928571429 11.142578125  C 2.34375 10.5631510416667  1.51506696428571 9.84700520833333  0.909040178571429 8.994140625  C 0.303013392857143 8.14127604166666  0 7.2265625  0 6.25  C 0 5.40364583333333  0.237723214285714 4.5947265625  0.713169642857143 3.8232421875  C 1.18861607142857 3.0517578125  1.828125 2.38606770833333  2.63169642857143 1.826171875  C 3.43526785714286 1.26627604166667  4.39285714285714 0.821940104166665  5.50446428571429 0.493164062499999  C 6.61607142857143 0.164388020833333  7.78125 0  9 0  C 10.21875 0  11.3839285714286 0.164388020833333  12.4955357142857 0.493164062499999  C 13.6071428571429 0.821940104166665  14.5647321428571 1.26627604166667  15.3683035714286 1.826171875  C 16.171875 2.38606770833333  16.8113839285714 3.0517578125  17.2868303571429 3.8232421875  Z " fill-rule="nonzero" fill="#000000" stroke="none" transform="matrix(1 0 0 1 273 628 )" />
  </g>
</svg>