<?xml version="1.0" encoding="utf-8"?>
<svg version="1.1" xmlns:xlink="http://www.w3.org/1999/xlink" width="18px" height="16px" xmlns="http://www.w3.org/2000/svg">
  <defs>
    <mask fill="white" id="clip142">
      <path d="M 15.4126394052045 9.141075604053  C 15.4200743494424 9.15770329955833  15.4237918215613 9.18264484281632  15.4237918215613 9.21590023382697  L 15.4237918215613 15.2018706157443  C 15.4237918215613 15.4180306573136  15.3531598513011 15.6050922317485  15.2118959107807 15.7630553390491  C 15.0706319702602 15.9210184463497  14.9033457249071 16  14.7100371747212 16  L 10.4275092936803 16  L 10.4275092936803 11.2112236944661  L 7.5724907063197 11.2112236944661  L 7.5724907063197 16  L 3.28996282527881 16  C 3.09665427509294 16  2.92936802973978 15.9210184463497  2.78810408921933 15.7630553390491  C 2.64684014869889 15.6050922317485  2.57620817843866 15.4180306573136  2.57620817843866 15.2018706157443  L 2.57620817843866 9.21590023382697  C 2.57620817843866 9.2075863860743  2.57806691449814 9.19511561444531  2.5817843866171 9.17848791893998  C 2.58550185873606 9.16186022343466  2.58736059479554 9.14938945180566  2.58736059479554 9.141075604053  L 9 3.22992985190959  L 15.4126394052045 9.141075604053  Z M 17.9888475836431 8.06235385814497  C 17.996282527881 8.17459080280592  17.9702602230483 8.27227851389971  17.910780669145 8.35541699142635  L 17.2193308550186 9.27825409197194  C 17.1598513011152 9.35307872174591  17.0817843866171 9.39880488438556  16.9851301115242 9.41543257989088  L 16.9516728624535 9.41543257989088  C 16.8550185873606 9.41543257989088  16.7769516728625 9.38633411275656  16.7174721189591 9.32813717848792  L 9 2.13250194855807  L 1.28252788104089 9.32813717848792  C 1.19330855018587 9.39464796050922  1.10408921933086 9.42374642764354  1.01486988847584 9.41543257989088  C 0.9182156133829 9.39880488438556  0.840148698884759 9.35307872174591  0.780669144981413 9.27825409197194  L 0.0892193308550186 8.35541699142635  C 0.0297397769516729 8.27227851389971  0.00371747211895913 8.17459080280592  0.0111524163568773 8.06235385814497  C 0.0185873605947956 7.95011691348402  0.0594795539033457 7.86074305014289  0.133828996282528 7.79423226812159  L 8.15241635687732 0.324240062353859  C 8.39033457249071 0.108080020784618  8.6728624535316 0  9 0  C 9.3271375464684 0  9.6096654275093 0.108080020784618  9.84758364312268 0.324240062353859  L 12.5687732342007 2.86827747466874  L 12.5687732342007 0.436477007014808  C 12.5687732342007 0.320083138477525  12.6022304832714 0.224473889321901  12.6691449814126 0.149649259547935  C 12.7360594795539 0.0748246297739676  12.82156133829 0.0374123148869838  12.9256505576208 0.0374123148869838  L 15.0669144981413 0.0374123148869838  C 15.1710037174721 0.0374123148869838  15.2565055762082 0.0748246297739676  15.3234200743494 0.149649259547935  C 15.3903345724907 0.224473889321901  15.4237918215613 0.320083138477525  15.4237918215613 0.436477007014808  L 15.4237918215613 5.52455183164458  L 17.8661710037175 7.79423226812159  C 17.9405204460967 7.86074305014289  17.9814126394052 7.95011691348402  17.9888475836431 8.06235385814497  Z " fill-rule="evenodd" />
    </mask>
  </defs>
  <g transform="matrix(1 0 0 1 -57 -629 )">
    <path d="M 15.4126394052045 9.141075604053  C 15.4200743494424 9.15770329955833  15.4237918215613 9.18264484281632  15.4237918215613 9.21590023382697  L 15.4237918215613 15.2018706157443  C 15.4237918215613 15.4180306573136  15.3531598513011 15.6050922317485  15.2118959107807 15.7630553390491  C 15.0706319702602 15.9210184463497  14.9033457249071 16  14.7100371747212 16  L 10.4275092936803 16  L 10.4275092936803 11.2112236944661  L 7.5724907063197 11.2112236944661  L 7.5724907063197 16  L 3.28996282527881 16  C 3.09665427509294 16  2.92936802973978 15.9210184463497  2.78810408921933 15.7630553390491  C 2.64684014869889 15.6050922317485  2.57620817843866 15.4180306573136  2.57620817843866 15.2018706157443  L 2.57620817843866 9.21590023382697  C 2.57620817843866 9.2075863860743  2.57806691449814 9.19511561444531  2.5817843866171 9.17848791893998  C 2.58550185873606 9.16186022343466  2.58736059479554 9.14938945180566  2.58736059479554 9.141075604053  L 9 3.22992985190959  L 15.4126394052045 9.141075604053  Z M 17.9888475836431 8.06235385814497  C 17.996282527881 8.17459080280592  17.9702602230483 8.27227851389971  17.910780669145 8.35541699142635  L 17.2193308550186 9.27825409197194  C 17.1598513011152 9.35307872174591  17.0817843866171 9.39880488438556  16.9851301115242 9.41543257989088  L 16.9516728624535 9.41543257989088  C 16.8550185873606 9.41543257989088  16.7769516728625 9.38633411275656  16.7174721189591 9.32813717848792  L 9 2.13250194855807  L 1.28252788104089 9.32813717848792  C 1.19330855018587 9.39464796050922  1.10408921933086 9.42374642764354  1.01486988847584 9.41543257989088  C 0.9182156133829 9.39880488438556  0.840148698884759 9.35307872174591  0.780669144981413 9.27825409197194  L 0.0892193308550186 8.35541699142635  C 0.0297397769516729 8.27227851389971  0.00371747211895913 8.17459080280592  0.0111524163568773 8.06235385814497  C 0.0185873605947956 7.95011691348402  0.0594795539033457 7.86074305014289  0.133828996282528 7.79423226812159  L 8.15241635687732 0.324240062353859  C 8.39033457249071 0.108080020784618  8.6728624535316 0  9 0  C 9.3271375464684 0  9.6096654275093 0.108080020784618  9.84758364312268 0.324240062353859  L 12.5687732342007 2.86827747466874  L 12.5687732342007 0.436477007014808  C 12.5687732342007 0.320083138477525  12.6022304832714 0.224473889321901  12.6691449814126 0.149649259547935  C 12.7360594795539 0.0748246297739676  12.82156133829 0.0374123148869838  12.9256505576208 0.0374123148869838  L 15.0669144981413 0.0374123148869838  C 15.1710037174721 0.0374123148869838  15.2565055762082 0.0748246297739676  15.3234200743494 0.149649259547935  C 15.3903345724907 0.224473889321901  15.4237918215613 0.320083138477525  15.4237918215613 0.436477007014808  L 15.4237918215613 5.52455183164458  L 17.8661710037175 7.79423226812159  C 17.9405204460967 7.86074305014289  17.9814126394052 7.95011691348402  17.9888475836431 8.06235385814497  Z " fill-rule="nonzero" fill="#ffffff" stroke="none" transform="matrix(1 0 0 1 57 629 )" />
    <path d="M 15.4126394052045 9.141075604053  C 15.4200743494424 9.15770329955833  15.4237918215613 9.18264484281632  15.4237918215613 9.21590023382697  L 15.4237918215613 15.2018706157443  C 15.4237918215613 15.4180306573136  15.3531598513011 15.6050922317485  15.2118959107807 15.7630553390491  C 15.0706319702602 15.9210184463497  14.9033457249071 16  14.7100371747212 16  L 10.4275092936803 16  L 10.4275092936803 11.2112236944661  L 7.5724907063197 11.2112236944661  L 7.5724907063197 16  L 3.28996282527881 16  C 3.09665427509294 16  2.92936802973978 15.9210184463497  2.78810408921933 15.7630553390491  C 2.64684014869889 15.6050922317485  2.57620817843866 15.4180306573136  2.57620817843866 15.2018706157443  L 2.57620817843866 9.21590023382697  C 2.57620817843866 9.2075863860743  2.57806691449814 9.19511561444531  2.5817843866171 9.17848791893998  C 2.58550185873606 9.16186022343466  2.58736059479554 9.14938945180566  2.58736059479554 9.141075604053  L 9 3.22992985190959  L 15.4126394052045 9.141075604053  Z " stroke-width="2" stroke="#000007" fill="none" transform="matrix(1 0 0 1 57 629 )" mask="url(#clip142)" />
    <path d="M 17.9888475836431 8.06235385814497  C 17.996282527881 8.17459080280592  17.9702602230483 8.27227851389971  17.910780669145 8.35541699142635  L 17.2193308550186 9.27825409197194  C 17.1598513011152 9.35307872174591  17.0817843866171 9.39880488438556  16.9851301115242 9.41543257989088  L 16.9516728624535 9.41543257989088  C 16.8550185873606 9.41543257989088  16.7769516728625 9.38633411275656  16.7174721189591 9.32813717848792  L 9 2.13250194855807  L 1.28252788104089 9.32813717848792  C 1.19330855018587 9.39464796050922  1.10408921933086 9.42374642764354  1.01486988847584 9.41543257989088  C 0.9182156133829 9.39880488438556  0.840148698884759 9.35307872174591  0.780669144981413 9.27825409197194  L 0.0892193308550186 8.35541699142635  C 0.0297397769516729 8.27227851389971  0.00371747211895913 8.17459080280592  0.0111524163568773 8.06235385814497  C 0.0185873605947956 7.95011691348402  0.0594795539033457 7.86074305014289  0.133828996282528 7.79423226812159  L 8.15241635687732 0.324240062353859  C 8.39033457249071 0.108080020784618  8.6728624535316 0  9 0  C 9.3271375464684 0  9.6096654275093 0.108080020784618  9.84758364312268 0.324240062353859  L 12.5687732342007 2.86827747466874  L 12.5687732342007 0.436477007014808  C 12.5687732342007 0.320083138477525  12.6022304832714 0.224473889321901  12.6691449814126 0.149649259547935  C 12.7360594795539 0.0748246297739676  12.82156133829 0.0374123148869838  12.9256505576208 0.0374123148869838  L 15.0669144981413 0.0374123148869838  C 15.1710037174721 0.0374123148869838  15.2565055762082 0.0748246297739676  15.3234200743494 0.149649259547935  C 15.3903345724907 0.224473889321901  15.4237918215613 0.320083138477525  15.4237918215613 0.436477007014808  L 15.4237918215613 5.52455183164458  L 17.8661710037175 7.79423226812159  C 17.9405204460967 7.86074305014289  17.9814126394052 7.95011691348402  17.9888475836431 8.06235385814497  Z " stroke-width="2" stroke="#000007" fill="none" transform="matrix(1 0 0 1 57 629 )" mask="url(#clip142)" />
  </g>
</svg>