<?xml version="1.0" encoding="utf-8"?>
<svg version="1.1" xmlns:xlink="http://www.w3.org/1999/xlink" width="30px" height="30px" xmlns="http://www.w3.org/2000/svg">
  <defs>
    <mask fill="white" id="clip169">
      <path d="M 0 15  C 0 10.0082873654239  2.33069001095282 5.65221746110774  5.98478563675855 2.93907468315123  C 8.47976258459363 1.08657015661899  11.5917126345761 0  15 0  C 23.4 0  30 6.59999999999999  30 15  C 30 23.4  23.4 30  15 30  C 6.60000000000002 30  0 23.4  0 15  Z " fill-rule="evenodd" />
    </mask>
  </defs>
  <g transform="matrix(1 0 0 1 -65 -189 )">
    <path d="M 0 15  C 0 10.0082873654239  2.33069001095282 5.65221746110774  5.98478563675855 2.93907468315123  C 8.47976258459363 1.08657015661899  11.5917126345761 0  15 0  C 23.4 0  30 6.59999999999999  30 15  C 30 23.4  23.4 30  15 30  C 6.60000000000002 30  0 23.4  0 15  Z " fill-rule="nonzero" fill="#ffffff" stroke="none" transform="matrix(1 0 0 1 65 189 )" />
    <path d="M 0 15  C 0 10.0082873654239  2.33069001095282 5.65221746110774  5.98478563675855 2.93907468315123  C 8.47976258459363 1.08657015661899  11.5917126345761 0  15 0  C 23.4 0  30 6.59999999999999  30 15  C 30 23.4  23.4 30  15 30  C 6.60000000000002 30  0 23.4  0 15  Z " stroke-width="2" stroke="#797979" fill="none" transform="matrix(1 0 0 1 65 189 )" mask="url(#clip169)" />
  </g>
</svg>