<?xml version="1.0" encoding="utf-8"?>
<svg version="1.1" xmlns:xlink="http://www.w3.org/1999/xlink" width="12px" height="12px" viewBox="17 421.5  12 12" xmlns="http://www.w3.org/2000/svg">
  <path d="M 23 421.5  C 26.36 421.5  29 424.14  29 427.5  C 29 430.86  26.36 433.5  23 433.5  C 19.64 433.5  17 430.86  17 427.5  C 17 424.14  19.64 421.5  23 421.5  Z " fill-rule="nonzero" fill="#ffffff" stroke="none" />
  <path d="M 23 422  C 26.08 422  28.5 424.42  28.5 427.5  C 28.5 430.58  26.08 433  23 433  C 19.92 433  17.5 430.58  17.5 427.5  C 17.5 424.42  19.92 422  23 422  Z " stroke-width="1" stroke="#797979" fill="none" />
  <path d="M 23 430.5  C 21.32 430.5  20 429.18  20 427.5  C 20 425.82  21.32 424.5  23 424.5  C 24.68 424.5  26 425.82  26 427.5  C 26 429.18  24.68 430.5  23 430.5  " fill-rule="nonzero" fill="#797979" stroke="none" />
</svg>