<?xml version="1.0" encoding="utf-8"?>
<svg version="1.1" xmlns:xlink="http://www.w3.org/1999/xlink" width="12px" height="12px" viewBox="17 546.5  12 12" xmlns="http://www.w3.org/2000/svg">
  <path d="M 23 546.5  C 26.36 546.5  29 549.14  29 552.5  C 29 555.86  26.36 558.5  23 558.5  C 19.64 558.5  17 555.86  17 552.5  C 17 549.14  19.64 546.5  23 546.5  Z " fill-rule="nonzero" fill="#f0f0f0" stroke="none" />
  <path d="M 23 547  C 26.08 547  28.5 549.42  28.5 552.5  C 28.5 555.58  26.08 558  23 558  C 19.92 558  17.5 555.58  17.5 552.5  C 17.5 549.42  19.92 547  23 547  Z " stroke-width="1" stroke="#797979" fill="none" />
  <path d="M 23 555.5  C 21.32 555.5  20 554.18  20 552.5  C 20 550.82  21.32 549.5  23 549.5  C 24.68 549.5  26 550.82  26 552.5  C 26 554.18  24.68 555.5  23 555.5  " fill-rule="nonzero" fill="#797979" stroke="none" />
</svg>