<?xml version="1.0" encoding="utf-8"?>
<svg version="1.1" xmlns:xlink="http://www.w3.org/1999/xlink" width="12px" height="12px" viewBox="17 484  12 12" xmlns="http://www.w3.org/2000/svg">
  <path d="M 23 484  C 26.36 484  29 486.64  29 490  C 29 493.36  26.36 496  23 496  C 19.64 496  17 493.36  17 490  C 17 486.64  19.64 484  23 484  Z " fill-rule="nonzero" fill="#f0f0f0" stroke="none" />
  <path d="M 23 484.5  C 26.08 484.5  28.5 486.92  28.5 490  C 28.5 493.08  26.08 495.5  23 495.5  C 19.92 495.5  17.5 493.08  17.5 490  C 17.5 486.92  19.92 484.5  23 484.5  Z " stroke-width="1" stroke="#797979" fill="none" />
  <path d="M 23 493  C 21.32 493  20 491.68  20 490  C 20 488.32  21.32 487  23 487  C 24.68 487  26 488.32  26 490  C 26 491.68  24.68 493  23 493  " fill-rule="nonzero" fill="#797979" stroke="none" />
</svg>