<?xml version="1.0" encoding="utf-8"?>
<svg version="1.1" xmlns:xlink="http://www.w3.org/1999/xlink" width="60px" height="60px" xmlns="http://www.w3.org/2000/svg">
  <g transform="matrix(1 0 0 1 -180 -100 )">
    <path d="M 180 100  L 240 100  L 240 160  L 180 160  L 180 100  " fill-rule="nonzero" fill="#cccccc" stroke="none" />
    <path d="M 184 104  L 236 104  L 236 156  L 184 156  L 184 104  " fill-rule="nonzero" fill="#ffffff" stroke="none" />
    <path d="M 215.7 118  C 213.18 118  211.2 116.02  211.2 113.5  C 211.2 110.98  213.18 109  215.7 109  C 218.22 109  220.2 110.98  220.2 113.5  C 220.2 116.02  218.22 118  215.7 118  " fill-rule="nonzero" fill="#cccccc" stroke="none" />
    <path d="M 186 155  L 186 128.05  L 198.25 115.8  L 215.4 125.6  L 225.2 123.15  L 235 125.6  L 235 155  L 186 155  " fill-rule="nonzero" fill="#169bd5" stroke="none" />
  </g>
</svg>