<?xml version="1.0" encoding="utf-8"?>
<svg version="1.1" xmlns:xlink="http://www.w3.org/1999/xlink" width="12px" height="12px" viewBox="331 483  12 12" xmlns="http://www.w3.org/2000/svg">
  <path d="M 337 483  C 340.36 483  343 485.64  343 489  C 343 492.36  340.36 495  337 495  C 333.64 495  331 492.36  331 489  C 331 485.64  333.64 483  337 483  Z " fill-rule="nonzero" fill="#ffffff" stroke="none" />
  <path d="M 337 483.5  C 340.08 483.5  342.5 485.92  342.5 489  C 342.5 492.08  340.08 494.5  337 494.5  C 333.92 494.5  331.5 492.08  331.5 489  C 331.5 485.92  333.92 483.5  337 483.5  Z " stroke-width="1" stroke="#797979" fill="none" />
  <path d="M 337 492  C 335.32 492  334 490.68  334 489  C 334 487.32  335.32 486  337 486  C 338.68 486  340 487.32  340 489  C 340 490.68  338.68 492  337 492  " fill-rule="nonzero" fill="#797979" stroke="none" />
</svg>