<?xml version="1.0" encoding="utf-8"?>
<svg version="1.1" xmlns:xlink="http://www.w3.org/1999/xlink" width="12px" height="12px" viewBox="331 452  12 12" xmlns="http://www.w3.org/2000/svg">
  <path d="M 337 452  C 340.36 452  343 454.64  343 458  C 343 461.36  340.36 464  337 464  C 333.64 464  331 461.36  331 458  C 331 454.64  333.64 452  337 452  Z " fill-rule="nonzero" fill="#f0f0f0" stroke="none" />
  <path d="M 337 452.5  C 340.08 452.5  342.5 454.92  342.5 458  C 342.5 461.08  340.08 463.5  337 463.5  C 333.92 463.5  331.5 461.08  331.5 458  C 331.5 454.92  333.92 452.5  337 452.5  Z " stroke-width="1" stroke="#797979" fill="none" />
  <path d="M 337 461  C 335.32 461  334 459.68  334 458  C 334 456.32  335.32 455  337 455  C 338.68 455  340 456.32  340 458  C 340 459.68  338.68 461  337 461  " fill-rule="nonzero" fill="#797979" stroke="none" />
</svg>