<?xml version="1.0" encoding="utf-8"?>
<svg version="1.1" xmlns:xlink="http://www.w3.org/1999/xlink" width="18px" height="17px" xmlns="http://www.w3.org/2000/svg">
  <g transform="matrix(1 0 0 1 -181 -629 )">
    <path d="M 6.05189732142857 6.08170572916667  C 6.30301339285714 6.3583984375  6.42857142857143 6.69227430555556  6.42857142857143 7.08333333333333  C 6.42857142857143 7.47439236111111  6.30301339285714 7.80826822916667  6.05189732142857 8.0849609375  C 5.80078125 8.36165364583333  5.49776785714286 8.5  5.14285714285714 8.5  C 4.78794642857143 8.5  4.48493303571429 8.36165364583333  4.23381696428571 8.0849609375  C 3.98270089285714 7.80826822916667  3.85714285714286 7.47439236111111  3.85714285714286 7.08333333333333  C 3.85714285714286 6.69227430555556  3.98270089285714 6.3583984375  4.23381696428571 6.08170572916667  C 4.48493303571429 5.80501302083333  4.78794642857143 5.66666666666667  5.14285714285714 5.66666666666667  C 5.49776785714286 5.66666666666667  5.80078125 5.80501302083333  6.05189732142857 6.08170572916667  Z M 9.90904017857143 6.08170572916667  C 10.16015625 6.3583984375  10.2857142857143 6.69227430555556  10.2857142857143 7.08333333333333  C 10.2857142857143 7.47439236111111  10.16015625 7.80826822916667  9.90904017857143 8.0849609375  C 9.65792410714286 8.36165364583333  9.35491071428572 8.5  9 8.5  C 8.64508928571429 8.5  8.34207589285714 8.36165364583333  8.09095982142857 8.0849609375  C 7.83984375 7.80826822916667  7.71428571428571 7.47439236111111  7.71428571428571 7.08333333333333  C 7.71428571428571 6.69227430555556  7.83984375 6.3583984375  8.09095982142857 6.08170572916667  C 8.34207589285714 5.80501302083333  8.64508928571429 5.66666666666667  9 5.66666666666667  C 9.35491071428572 5.66666666666667  9.65792410714286 5.80501302083333  9.90904017857143 6.08170572916667  Z M 13.7661830357143 6.08170572916667  C 14.0172991071429 6.3583984375  14.1428571428571 6.69227430555556  14.1428571428571 7.08333333333333  C 14.1428571428571 7.47439236111111  14.0172991071429 7.80826822916667  13.7661830357143 8.0849609375  C 13.5150669642857 8.36165364583333  13.2120535714286 8.5  12.8571428571429 8.5  C 12.5022321428571 8.5  12.19921875 8.36165364583333  11.9481026785714 8.0849609375  C 11.6969866071429 7.80826822916667  11.5714285714286 7.47439236111111  11.5714285714286 7.08333333333333  C 11.5714285714286 6.69227430555556  11.6969866071429 6.3583984375  11.9481026785714 6.08170572916667  C 12.19921875 5.80501302083333  12.5022321428571 5.66666666666667  12.8571428571429 5.66666666666667  C 13.2120535714286 5.66666666666667  13.5150669642857 5.80501302083333  13.7661830357143 6.08170572916667  Z M 12.83203125 2.18587239583333  C 11.6434151785714 1.67306857638889  10.3660714285714 1.41666666666667  9 1.41666666666667  C 7.63392857142857 1.41666666666667  6.35658482142857 1.67306857638889  5.16796875 2.18587239583333  C 3.97935267857143 2.69867621527778  3.03515625 3.39040798611111  2.33537946428571 4.26106770833333  C 1.63560267857143 5.13172743055555  1.28571428571429 6.07248263888889  1.28571428571429 7.08333333333333  C 1.28571428571429 7.90972222222222  1.52511160714286 8.69737413194444  2.00390625 9.4462890625  C 2.48270089285714 10.1952039930556  3.15736607142857 10.8426649305556  4.02790178571429 11.388671875  L 4.90178571428571 11.9420572916667  L 4.63058035714286 13.0045572916667  C 4.46986607142857 13.6759982638889  4.23549107142857 14.310546875  3.92745535714286 14.908203125  C 4.9453125 14.443359375  5.86607142857143 13.8125  6.68973214285714 13.015625  L 7.12165178571429 12.5950520833333  L 7.69419642857143 12.6614583333333  C 8.15625 12.7204861111111  8.59151785714286 12.75  9 12.75  C 10.3660714285714 12.75  11.6434151785714 12.4935980902778  12.83203125 11.9807942708333  C 14.0206473214286 11.4679904513889  14.96484375 10.7762586805556  15.6646205357143 9.90559895833333  C 16.3643973214286 9.03493923611111  16.7142857142857 8.09418402777778  16.7142857142857 7.08333333333333  C 16.7142857142857 6.07248263888889  16.3643973214286 5.13172743055555  15.6646205357143 4.26106770833333  C 14.96484375 3.39040798611111  14.0206473214286 2.69867621527778  12.83203125 2.18587239583333  Z M 17.2868303571429 4.3330078125  C 17.7622767857143 5.20735677083333  18 6.12413194444444  18 7.08333333333333  C 18 8.3671875  17.5982142857143 9.55327690972222  16.7946428571429 10.6416015625  C 15.9910714285714 11.7299262152778  14.8995535714286 12.5895182291667  13.5200892857143 13.2203776041667  C 12.140625 13.8512369791667  10.6339285714286 14.1666666666667  9 14.1666666666667  C 8.53125 14.1666666666667  8.04575892857143 14.1371527777778  7.54352678571429 14.078125  C 6.21763392857143 15.3693576388889  4.67745535714286 16.2621527777778  2.92299107142857 16.7565104166667  C 2.59486607142857 16.8598090277778  2.21316964285714 16.9409722222222  1.77790178571429 17  L 1.72767857142857 17  C 1.62723214285714 17  1.53683035714286 16.9612630208333  1.45647321428571 16.8837890625  C 1.37611607142857 16.8063151041667  1.32254464285714 16.7048611111111  1.29575892857143 16.5794270833333  L 1.29575892857143 16.568359375  C 1.27566964285714 16.5388454861111  1.27399553571429 16.4945746527778  1.29073660714286 16.435546875  C 1.30747767857143 16.3765190972222  1.31417410714286 16.3396267361111  1.31082589285714 16.3248697916667  C 1.30747767857143 16.3101128472222  1.32254464285714 16.2750651041667  1.35602678571429 16.2197265625  L 1.41629464285714 16.1201171875  C 1.41629464285714 16.1201171875  1.43973214285714 16.0887586805556  1.48660714285714 16.0260416666667  C 1.53348214285714 15.9633246527778  1.56026785714286 15.9301215277778  1.56696428571429 15.9264322916667  C 1.61383928571429 15.8674045138889  1.71763392857143 15.7401258680556  1.87834821428571 15.5445963541667  C 2.0390625 15.3490668402778  2.15457589285714 15.2088758680556  2.22488839285714 15.1240234375  C 2.29520089285714 15.0391710069444  2.39899553571429 14.8934461805556  2.53627232142857 14.6868489583333  C 2.67354910714286 14.4802517361111  2.78236607142857 14.2921006944444  2.86272321428571 14.1223958333333  C 2.94308035714286 13.9526909722222  3.03348214285714 13.7350260416667  3.13392857142857 13.4694010416667  C 3.234375 13.2037760416667  3.32142857142857 12.9233940972222  3.39508928571429 12.6282552083333  C 2.34375 11.9715711805556  1.51506696428571 11.1599392361111  0.909040178571429 10.193359375  C 0.303013392857143 9.22677951388889  0 8.19010416666667  0 7.08333333333333  C 0 6.12413194444444  0.237723214285714 5.20735677083333  0.713169642857143 4.3330078125  C 1.18861607142857 3.45865885416667  1.828125 2.70421006944444  2.63169642857143 2.06966145833333  C 3.43526785714286 1.43511284722222  4.39285714285714 0.931532118055553  5.50446428571429 0.558919270833333  C 6.61607142857143 0.18630642361111  7.78125 0  9 0  C 10.21875 0  11.3839285714286 0.18630642361111  12.4955357142857 0.558919270833333  C 13.6071428571429 0.931532118055553  14.5647321428571 1.43511284722222  15.3683035714286 2.06966145833333  C 16.171875 2.70421006944444  16.8113839285714 3.45865885416667  17.2868303571429 4.3330078125  Z " fill-rule="nonzero" fill="#797979" stroke="none" transform="matrix(1 0 0 1 181 629 )" />
  </g>
</svg>