<?xml version="1.0" encoding="utf-8"?>
<svg version="1.1" xmlns:xlink="http://www.w3.org/1999/xlink" width="10px" height="9px" xmlns="http://www.w3.org/2000/svg">
  <g transform="matrix(1 0 0 1 -61 -1190 )">
    <path d="M 66 1190  C 68.8 1190  71 1191.98  71 1194.5  C 71 1197.02  68.8 1199  66 1199  C 63.2 1199  61 1197.02  61 1194.5  C 61 1191.98  63.2 1190  66 1190  Z " fill-rule="nonzero" fill="#ffffff" stroke="none" />
    <path d="M 66 1190.5  C 68.52 1190.5  70.5 1192.26  70.5 1194.5  C 70.5 1196.74  68.52 1198.5  66 1198.5  C 63.48 1198.5  61.5 1196.74  61.5 1194.5  C 61.5 1192.26  63.48 1190.5  66 1190.5  Z " stroke-width="1" stroke="#797979" fill="none" />
  </g>
</svg>