<?xml version="1.0" encoding="utf-8"?>
<svg version="1.1" xmlns:xlink="http://www.w3.org/1999/xlink" width="10px" height="10px" xmlns="http://www.w3.org/2000/svg">
  <g transform="matrix(1 0 0 1 -61 -292 )">
    <path d="M 66 292  C 68.8 292  71 294.2  71 297  C 71 299.8  68.8 302  66 302  C 63.2 302  61 299.8  61 297  C 61 294.2  63.2 292  66 292  Z " fill-rule="nonzero" fill="#ffffff" stroke="none" />
    <path d="M 66 292.5  C 68.52 292.5  70.5 294.48  70.5 297  C 70.5 299.52  68.52 301.5  66 301.5  C 63.48 301.5  61.5 299.52  61.5 297  C 61.5 294.48  63.48 292.5  66 292.5  Z " stroke-width="1" stroke="#797979" fill="none" />
  </g>
</svg>